<svg xmlns="http://www.w3.org/2000/svg" viewBox="0 0 200 200" width="200" height="200">
  <circle cx="100" cy="100" r="92" fill="#fff" stroke="#15803d" stroke-width="6"/>
  <circle cx="100" cy="100" r="80" fill="none" stroke="#86efac" stroke-width="2"/>
  <path id="goTop" d="M 30 100 A 70 70 0 0 1 170 100" fill="none"/>
  <path id="goBot" d="M 30 105 A 70 70 0 0 0 170 105" fill="none"/>
  <text font-family="Arial, sans-serif" font-size="11" font-weight="800" fill="#15803d" letter-spacing="3">
    <textPath href="#goTop" startOffset="50%" text-anchor="middle">GREEN OT CERTIFIED</textPath>
  </text>
  <text font-family="Arial, sans-serif" font-size="9" font-weight="600" fill="#15803d" letter-spacing="2">
    <textPath href="#goBot" startOffset="50%" text-anchor="middle">ECO SURGICAL STANDARD</textPath>
  </text>
  <g transform="translate(100,103)">
    <path d="M 0 -28 C -18 -20, -22 0, 0 18 C 22 0, 18 -20, 0 -28 Z" fill="#22c55e"/>
    <path d="M 0 -25 C -2 -10, -2 5, 0 16" stroke="#15803d" stroke-width="1.5" fill="none"/>
    <path d="M 0 -10 L -10 -3 M 0 0 L 10 7 M 0 -18 L 8 -12" stroke="#15803d" stroke-width="1.2" fill="none"/>
  </g>
  <text x="100" y="148" font-family="Arial, sans-serif" font-size="7" font-weight="700" fill="#15803d" text-anchor="middle" letter-spacing="3">SUSTAINABLE CARE</text>
</svg>
