<svg xmlns="http://www.w3.org/2000/svg" viewBox="0 0 200 200" width="200" height="200">
  <defs>
    <radialGradient id="jciGold" cx="50%" cy="50%" r="50%">
      <stop offset="0%" stop-color="#fde68a"/>
      <stop offset="100%" stop-color="#d97706"/>
    </radialGradient>
  </defs>
  <circle cx="100" cy="100" r="92" fill="url(#jciGold)" stroke="#92400e" stroke-width="3"/>
  <circle cx="100" cy="100" r="74" fill="#fff" stroke="#92400e" stroke-width="1.5"/>
  <path id="jciTop" d="M 36 100 A 64 64 0 0 1 164 100" fill="none"/>
  <path id="jciBot" d="M 36 105 A 64 64 0 0 0 164 105" fill="none"/>
  <text font-family="Arial, sans-serif" font-size="10" font-weight="800" fill="#92400e" letter-spacing="2">
    <textPath href="#jciTop" startOffset="50%" text-anchor="middle">JOINT COMMISSION</textPath>
  </text>
  <text font-family="Arial, sans-serif" font-size="9" font-weight="700" fill="#92400e" letter-spacing="2">
    <textPath href="#jciBot" startOffset="50%" text-anchor="middle">INTERNATIONAL</textPath>
  </text>
  <text x="100" y="98" font-family="Arial, sans-serif" font-size="32" font-weight="900" fill="#0c4a6e" text-anchor="middle">JCI</text>
  <text x="100" y="118" font-family="Arial, sans-serif" font-size="9" font-weight="800" fill="#0369a1" text-anchor="middle" letter-spacing="2">ACCREDITED</text>
  <polygon points="65,135 67,140 72,140 68,143 70,148 65,145 60,148 62,143 58,140 63,140" fill="#d97706"/>
  <polygon points="135,135 137,140 142,140 138,143 140,148 135,145 130,148 132,143 128,140 133,140" fill="#d97706"/>
</svg>
